<?xml version="1.0" standalone="no"?>
<!DOCTYPE svg PUBLIC "-//W3C//DTD SVG 20010904//EN"
 "http://www.w3.org/TR/2001/REC-SVG-20010904/DTD/svg10.dtd">
<svg version="1.0" xmlns="http://www.w3.org/2000/svg"
 width="512.000000pt" height="512.000000pt" viewBox="0 0 512.000000 512.000000"
 preserveAspectRatio="xMidYMid meet">
<metadata>
Created by potrace 1.14, written by Peter Selinger 2001-2017
</metadata>
<g transform="translate(0.000000,512.000000) scale(0.100000,-0.100000)"
fill="#000000" stroke="none">
<path d="M2295 5105 c-153 -23 -321 -89 -460 -179 -113 -74 -175 -128 -262
-231 -51 -61 -119 -162 -132 -198 -7 -18 -13 -13 -48 39 -22 32 -53 71 -68 87
-44 44 -102 32 -124 -25 -11 -29 -5 -43 72 -157 83 -124 134 -256 153 -397 4
-30 2 -41 -8 -41 -237 -8 -520 -98 -720 -230 -193 -128 -354 -312 -457 -523
-23 -47 -46 -92 -50 -100 -7 -14 -58 -172 -61 -192 -1 -4 -8 -36 -17 -70 -8
-35 -17 -85 -20 -113 -3 -27 -8 -66 -12 -85 -11 -51 -6 -383 7 -472 21 -147
71 -326 117 -426 14 -29 25 -54 25 -56 0 -3 19 -37 42 -78 280 -488 802 -741
1408 -684 149 14 368 74 476 131 16 8 32 15 36 15 6 0 23 -51 33 -100 11 -52
74 -209 116 -287 75 -143 121 -204 244 -329 203 -206 456 -332 770 -385 85
-14 338 -19 420 -9 33 5 76 10 95 13 168 22 389 110 553 220 91 61 159 118
226 191 20 22 44 47 53 57 9 10 42 55 73 100 95 139 178 329 215 494 7 28 14
59 16 70 22 92 31 222 29 395 -3 206 -5 222 -35 367 -66 310 -223 590 -435
773 -90 78 -98 84 -165 126 -126 79 -237 129 -368 165 -110 31 -151 38 -292
54 -30 4 -56 8 -57 9 -6 6 20 138 38 193 35 107 110 246 168 312 31 35 31 84
2 114 -43 44 -92 22 -156 -67 -107 -150 -173 -317 -200 -506 -4 -25 -8 -46 -9
-47 -1 -2 -36 -6 -77 -9 -144 -11 -334 -61 -470 -122 l-66 -30 -23 86 c-102
384 -354 706 -685 875 -89 45 -191 86 -207 83 -36 -6 -58 -19 -63 -37 -6 -17
-13 -20 -33 -15 -15 3 -55 11 -88 17 -52 10 -61 15 -57 30 13 48 -39 78 -136
81 -38 1 -37 1 -51 88 -5 36 -13 77 -16 93 l-6 27 84 -3 c312 -12 634 113 857
332 128 127 202 236 265 395 28 71 28 113 1 136 -47 39 -306 59 -460 35z"/>
</g>
</svg>
